<?xml version="1.0" encoding="iso-8859-1"?>
<!-- Generator: Adobe Illustrator 16.2.1, SVG Export Plug-In . SVG Version: 6.00 Build 0)  -->
<!DOCTYPE svg PUBLIC "-//W3C//DTD SVG 1.1//EN" "http://www.w3.org/Graphics/SVG/1.1/DTD/svg11.dtd">
<svg version="1.1" id="Layer_1" xmlns="http://www.w3.org/2000/svg" xmlns:xlink="http://www.w3.org/1999/xlink" x="0px" y="0px"
	 width="268.016px" height="127.278px" viewBox="0 0 268.016 127.278" style="enable-background:new 0 0 268.016 127.278;"
	 xml:space="preserve">
<g>
	<path style="fill:#A93439;" d="M93.043,0h6.318h29.61c0.583,0,1.058,0.474,1.058,1.057v6.342c0,0.581-0.475,1.058-1.058,1.058
		h-27.453c-0.751,0-1.099,0.256-1.099,1.047c0,0,0,65.074,0,65.508c0,0.536,0.561,1.062,1.099,1.062h27.453
		c0.583,0,1.058,0.472,1.058,1.058v6.336c0,0.585-0.475,1.06-1.058,1.06h-29.61h-6.318c-0.583,0-1.058-0.475-1.058-1.06V77.13V7.399
		V1.057C91.985,0.474,92.46,0,93.043,0L93.043,0z"/>
	<path style="fill:#A93439;" d="M175.447,84.526h-6.311h-29.614c-0.587,0-1.058-0.475-1.058-1.06V77.13
		c0-0.586,0.471-1.058,1.058-1.058h27.456c0.748,0,1.096-0.258,1.096-1.05c0,0,0-65.074,0-65.509c0-0.533-0.561-1.058-1.096-1.058
		h-27.456c-0.587,0-1.058-0.477-1.058-1.058V1.057c0-0.583,0.471-1.057,1.058-1.057h29.614h6.311c0.59,0,1.062,0.474,1.062,1.057
		v6.342V77.13v6.336C176.509,84.051,176.037,84.526,175.447,84.526L175.447,84.526z"/>
	<path style="fill:#A93439;" d="M184.559,0h6.314h29.605c0.588,0,1.062,0.474,1.062,1.057v6.342c0,0.581-0.475,1.058-1.062,1.058
		h-27.453c-0.747,0-1.099,0.256-1.099,1.047c0,0,0,65.074,0,65.508c0,0.536,0.564,1.062,1.099,1.062h27.453
		c0.588,0,1.062,0.472,1.062,1.058v6.336c0,0.585-0.475,1.06-1.062,1.06h-29.605h-6.314c-0.584,0-1.062-0.475-1.062-1.06V77.13
		V7.399V1.057C183.496,0.474,183.975,0,184.559,0L184.559,0z"/>
	<path style="fill:#A93439;" d="M266.957,84.526h-6.314h-29.613c-0.587,0-1.055-0.475-1.055-1.06V77.13
		c0-0.586,0.468-1.058,1.055-1.058h27.461c0.743,0,1.091-0.258,1.091-1.05c0,0,0-65.074,0-65.509c0-0.533-0.557-1.058-1.091-1.058
		h-27.461c-0.587,0-1.055-0.477-1.055-1.058V1.057c0-0.583,0.468-1.057,1.055-1.057h29.613h6.314c0.584,0,1.059,0.474,1.059,1.057
		v6.342V77.13v6.336C268.016,84.051,267.541,84.526,266.957,84.526L266.957,84.526z"/>
	<path style="fill:#A93439;" d="M202.519,60.206c0-0.585,0.475-1.06,1.058-1.06h6.311c0.588,0,1.066,0.475,1.066,1.06v6.338
		c0,0.586-0.479,1.059-1.066,1.059h-6.311c-0.583,0-1.058-0.473-1.058-1.059V60.206L202.519,60.206z"/>
	<path style="fill:#A93439;" d="M221.541,60.206c0-0.585,0.471-1.06,1.058-1.06h6.314c0.587,0,1.062,0.475,1.062,1.06v6.338
		c0,0.586-0.475,1.059-1.062,1.059h-6.314c-0.587,0-1.058-0.473-1.058-1.059V60.206L221.541,60.206z"/>
	<path style="fill:#A93439;" d="M240.559,60.206c0-0.585,0.475-1.06,1.059-1.06h6.318c0.583,0,1.062,0.475,1.062,1.06v6.338
		c0,0.586-0.479,1.059-1.062,1.059h-6.318c-0.584,0-1.059-0.473-1.059-1.059V60.206L240.559,60.206z"/>
	<path style="fill:#A93439;" d="M38.523,9.514c0-0.587,0.475-1.058,1.058-1.058h6.314c0.583,0,1.058,0.47,1.058,1.058v6.339
		c0,0.584-0.475,1.06-1.058,1.06h-6.314c-0.583,0-1.058-0.476-1.058-1.06V9.514L38.523,9.514z"/>
	<path style="fill:#A93439;" d="M38.523,23.417c0-0.586,0.475-1.059,1.058-1.059h6.314c0.583,0,1.058,0.473,1.058,1.059v51.596
		c0,0.581-0.475,1.06-1.058,1.06h-6.314c-0.583,0-1.058-0.479-1.058-1.06V23.417L38.523,23.417z"/>
	<path style="fill:#A93439;" d="M1.537,0h6.318h29.61c0.583,0,1.058,0.474,1.058,1.057v6.342c0,0.581-0.475,1.058-1.058,1.058
		H10.008c-0.744,0-1.095,0.256-1.095,1.047c0,0,0,65.074,0,65.508c0,0.536,0.557,1.062,1.095,1.062h27.457
		c0.583,0,1.058,0.472,1.058,1.058v6.336c0,0.585-0.475,1.06-1.058,1.06H7.855H1.537c-0.587,0-1.058-0.475-1.058-1.06V77.13V7.399
		V1.057C0.479,0.474,0.95,0,1.537,0L1.537,0z"/>
	<path style="fill:#A93439;" d="M83.94,84.526h-6.314H48.012c-0.583,0-1.058-0.475-1.058-1.06V77.13
		c0-0.586,0.475-1.058,1.058-1.058h27.46c0.744,0,1.091-0.258,1.091-1.05c0,0,0-65.074,0-65.509c0-0.533-0.561-1.058-1.091-1.058
		h-27.46c-0.583,0-1.058-0.477-1.058-1.058V1.057C46.954,0.474,47.428,0,48.012,0h29.614h6.314c0.583,0,1.058,0.474,1.058,1.057
		v6.342V77.13v6.336C84.998,84.051,84.523,84.526,83.94,84.526L83.94,84.526z"/>
	<path style="fill:#A93439;" d="M143.179,41.259c0.403,0.241,0.654,0.68,0.654,1.185c0,0.49-0.262,0.927-0.65,1.17L116.316,59.09
		c-1.167,0.701-1.959,1.987-1.959,3.453c0,2.224,1.802,4.023,4.019,4.023c0.751,0,1.507-0.199,2.109-0.558l35.105-20.054
		c1.11-0.718,1.862-1.983,1.862-3.4c0-1.499-0.812-2.795-2.027-3.49l-35.124-20.32c-0.568-0.315-1.222-0.493-1.925-0.493
		c-2.217,0-4.019,1.801-4.019,4.021c0,1.471,0.8,2.765,1.981,3.465L143.179,41.259L143.179,41.259z"/>
	<g>
		<path style="fill:#A93439;" d="M267.646,126.319c0,0.527-0.432,0.959-0.959,0.959H0.959c-0.527,0-0.959-0.432-0.959-0.959V91.525
			c0-0.527,0.432-0.959,0.959-0.959h265.728c0.527,0,0.959,0.432,0.959,0.959V126.319z"/>
	</g>
	<path style="fill:#FFFFFF;" d="M145.317,98.314h3.548v3.17h-3.548V98.314z M145.317,103.492h3.548v14.882h-3.548V103.492z"/>
	<path style="fill:#FFFFFF;" d="M158.115,108.887v3.495H150.6v-3.495H158.115z"/>
	<path style="fill:#FFFFFF;" d="M160.01,98.314h6.371c2.494,0,6.123,0.243,8.513,3.47c1.462,1.843,2.06,4.063,2.06,6.531
		c0,5.67-2.982,10.059-10.277,10.059h-6.666V98.314z M164.048,114.824h2.849c4.337,0,6.016-2.849,6.016-6.453
		c0-1.57-0.408-3.252-1.354-4.501c-0.845-1.081-2.198-2.006-4.636-2.006h-2.875V114.824z"/>
	<path style="fill:#FFFFFF;" d="M181.287,118.374h-4.39l8.136-20.06h3.547l7.941,20.06h-4.412l-1.465-3.932h-7.918L181.287,118.374z
		 M186.633,103.084l-2.849,8.135h5.772L186.633,103.084z"/>
	<path style="fill:#FFFFFF;" d="M199.535,101.864h-4.337v-3.55h12.685v3.55h-4.311v16.51h-4.037V101.864z"/>
	<path style="fill:#FFFFFF;" d="M211.223,118.374h-3.717v-4.012h3.717V118.374z"/>
	<path style="fill:#FFFFFF;" d="M214.471,110.893c0-3.797,2.793-7.835,7.971-7.835s7.971,4.038,7.971,7.862
		c0,3.848-2.793,7.885-7.971,7.885s-7.971-4.037-7.971-7.885V110.893z M218.026,110.945c0,2.606,1.978,4.528,4.415,4.528
		c2.441,0,4.393-1.922,4.393-4.553c0-2.628-1.951-4.558-4.393-4.558c-2.438,0-4.415,1.93-4.415,4.558V110.945z"/>
	<path style="fill:#FFFFFF;" d="M233.123,103.492h3.365v1.95c0.646-1.325,1.869-2.384,4.119-2.411v3.579h-0.164
		c-2.494,0-3.769,1.165-3.769,3.738v8.025h-3.552V103.492z"/>
	<path style="fill:#FFFFFF;" d="M257.248,116.613c0,2.439-0.456,4.014-1.379,5.259c-1.275,1.705-3.77,3.062-6.831,3.062
		c-4.64,0-6.86-2.767-7.402-5.065h4.124c0.321,0.674,0.893,1.188,1.544,1.514c0.729,0.408,1.518,0.518,1.951,0.518
		c2.112,0,4.419-1.465,4.419-4.475v-1.247c-0.732,1.327-2.307,2.658-4.826,2.658c-4.285,0-7.594-3.253-7.594-7.836
		c0-4.852,3.474-7.941,7.594-7.941c2.143,0,3.985,0.977,4.826,2.438v-2.004h3.574V116.613z M244.807,110.92
		c0,2.603,1.873,4.582,4.448,4.582c1.331,0,2.386-0.462,3.171-1.275c0.789-0.787,1.248-1.896,1.274-3.172
		c0-1.139-0.351-2.329-1.088-3.2c-0.702-0.894-1.813-1.492-3.357-1.492c-2.415,0-4.448,1.873-4.448,4.53V110.92z"/>
</g>
</svg>
