<?xml version="1.0" encoding="iso-8859-1"?>
<!-- Generator: Adobe Illustrator 16.2.1, SVG Export Plug-In . SVG Version: 6.00 Build 0)  -->
<!DOCTYPE svg PUBLIC "-//W3C//DTD SVG 1.1//EN" "http://www.w3.org/Graphics/SVG/1.1/DTD/svg11.dtd">
<svg version="1.1" id="Layer_1" xmlns="http://www.w3.org/2000/svg" xmlns:xlink="http://www.w3.org/1999/xlink" x="0px" y="0px"
	 width="108.812px" height="108.811px" viewBox="0 0 108.812 108.811" style="enable-background:new 0 0 108.812 108.811;"
	 xml:space="preserve">
<g>
	<path d="M108.812,101.871c0,3.833-3.108,6.94-6.941,6.94H6.94c-3.835,0-6.94-3.107-6.94-6.94V6.94C0,3.107,3.105,0,6.94,0h94.931
		c3.833,0,6.941,3.107,6.941,6.94V101.871z"/>
	<path style="fill:#FFFFFF;" d="M68.651,52.28c-1.463,0-2.873,0.222-4.201,0.63c-0.051-0.128-0.103-0.256-0.16-0.382
		c2.684-2.592,4.361-6.221,4.361-10.247c0-7.872-6.382-14.253-14.254-14.253c-7.869,0-14.251,6.381-14.251,14.253
		c0,4.026,1.677,7.655,4.36,10.247c-0.056,0.125-0.108,0.252-0.159,0.378c-1.322-0.406-2.728-0.626-4.185-0.626
		c-7.87,0-14.253,6.381-14.253,14.252s6.383,14.252,14.253,14.252c7.463,0,13.575-5.739,14.189-13.041
		c0.017,0,0.03,0.002,0.045,0.002c0.022,0,0.041-0.004,0.062-0.004c0.616,7.304,6.73,13.043,14.192,13.043
		c7.871,0,14.251-6.381,14.251-14.252S76.522,52.28,68.651,52.28z"/>
</g>
</svg>
